<svg xmlns="http://www.w3.org/2000/svg" version="1.1" xmlns:xlink="http://www.w3.org/1999/xlink" width="100%" height="100%" id="svgWorkerArea" viewBox="0 0 400 400" xmlns:artdraw="https://artdraw.muisca.co" style="background: white;"><defs id="defsdoc"><pattern id="patternBool" x="0" y="0" width="10" height="10" patternUnits="userSpaceOnUse" patternTransform="rotate(35)"><circle cx="5" cy="5" r="4" style="stroke: none;fill: #ff000070;"></circle></pattern></defs><g id="fileImp-397583653" class="cosito"><path id="pathImp-758273411" class="grouped" style="fill:none" d="M4 4.025C4 3.9917 396 3.9917 396 4.025 396 3.9917 396 395.8917 396 396.025 396 395.8917 4 395.8917 4 396.025 4 395.8917 4 3.9917 4 4.025"></path><path id="pathImp-89178069" class="grouped" style="fill:none;stroke:#444f58;stroke-width:2px" d="M233.4 150.3023C222.8 178.2917 224.5 187.2917 193 215.0496 178.6 227.4917 172 243.3917 169.1 258.3534 169.1 258.2917 168.1 257.8917 168.1 257.9491 148 246.1917 146 212.2917 163.4 182.2441 180.6 151.9917 211.1 136.7917 231.3 148.6301 231.3 148.4917 233.4 150.1917 233.4 150.3023 233.4 150.1917 233.4 150.1917 233.4 150.3023M248.4 155.5024C266.5 167.7917 268 200.3917 251.1 229.5291 234 259.1917 204.3 274.1917 184.3 263.5474 186.9 248.4917 193.5 232.7917 208 220.2497 239.6 192.2917 237.8 183.4917 248.4 155.5024 248.4 155.2917 248.4 155.2917 248.4 155.5024"></path><path id="ellipseImp-168149471" class="grouped" style="fill:none;stroke:#444f58;stroke-width:2px" d="M295.5 111.1267C295.5 90.6917 307.8 74.2917 323.2 74.3767 338.3 74.2917 350.5 90.6917 350.5 111.1267 350.5 131.2917 338.3 147.6917 323.2 147.8767 307.8 147.6917 295.5 131.2917 295.5 111.1267 295.5 110.9917 295.5 110.9917 295.5 111.1267"></path><path id="pathImp-460103187" class="grouped" style="fill:none;stroke:#444f58;stroke-width:2px" d="M140 71.596C152.3 80.6917 152 101.1917 139.8 117.5336 127.6 133.4917 107.8 139.1917 95.8 130.2123 83.6 120.7917 83.6 100.2917 95.9 84.2747 108.1 67.9917 128 62.1917 140 71.596 140 71.4917 140 71.4917 140 71.596M102.6 228.8064C114.9 237.8917 114.8 258.3917 102.5 274.7439 90.3 290.7917 70.5 296.3917 58.4 287.4226 46.3 277.9917 46.4 257.4917 58.5 241.4851 70.9 225.1917 90.5 219.4917 102.6 228.8064 102.6 228.6917 102.6 228.6917 102.6 228.8064M324.8 309.3317C327.7 323.9917 314 339.3917 294 343.3806 274.2 346.9917 255.5 337.9917 252.6 323.3151 249.9 308.2917 263.7 292.8917 283.5 289.2663 303.3 285.2917 322 294.2917 324.8 309.3317 324.8 309.1917 324.8 309.1917 324.8 309.3317M323.2 147.8767C323.2 147.6917 315.2 129.1917 326.2 114.1893 337.2 98.9917 320 74.4917 320 74.5973"></path><path id="pathImp-385735897" class="grouped" style="fill:none;stroke:#444f58;stroke-width:2px" d="M95.8 130.2123C95.8 129.9917 100.5 110.4917 118.5 105.1916 136.3 99.7917 137.5 69.7917 137.5 69.9239M58.4 287.4226C58.4 287.2917 63.3 267.6917 81.1 262.402 99 256.8917 100 226.8917 100 227.1343"></path><path id="circleImp-595448918" class="grouped" style="fill:none;stroke:#444f58;stroke-width:2px" d="M83.6 179.5063C83.6 170.2917 91 162.9917 100 163.0484 109.3 162.9917 116.5 170.2917 116.5 179.5063 116.5 188.4917 109.3 195.7917 100 195.9641 91 195.7917 83.6 188.4917 83.6 179.5063 83.6 179.2917 83.6 179.2917 83.6 179.5063"></path><path id="circleImp-569507171" class="grouped" style="fill:none;stroke:#444f58;stroke-width:2px" d="M242.9 65.1893C242.9 59.7917 247 55.6917 252.3 55.7751 257.5 55.6917 261.8 59.7917 261.8 65.1893 261.8 70.1917 257.5 74.4917 252.3 74.6034 247 74.4917 242.9 70.1917 242.9 65.1893 242.9 65.0917 242.9 65.0917 242.9 65.1893"></path><path id="circleImp-524415917" class="grouped" style="fill:none;stroke:#444f58;stroke-width:2px" d="M326.2 248.9393C326.2 241.9917 331.7 236.4917 338.5 236.6893 345 236.4917 350.5 241.9917 350.5 248.9393 350.5 255.4917 345 260.9917 338.5 261.1893 331.7 260.9917 326.2 255.4917 326.2 248.9393 326.2 248.8917 326.2 248.8917 326.2 248.9393"></path><path id="pathImp-125691678" class="grouped" style="fill:none;stroke:#444f58;stroke-width:2px" d="M286.5 319.9096C303.3 327.7917 324 306.1917 324 306.3673"></path></g></svg>