<svg xmlns="http://www.w3.org/2000/svg" xmlns:xlink="http://www.w3.org/1999/xlink" width="500" zoomAndPan="magnify" viewBox="0 0 375 374.999991" height="500" preserveAspectRatio="xMidYMid meet" version="1.0"><defs><g/></defs><g fill="#000000" fill-opacity="1"><g transform="translate(120.381244, 267.817805)"><g><path d="M 11.109375 -14.671875 C 15.109375 -14.816406 18.144531 -15.296875 20.21875 -16.109375 C 22.289062 -16.921875 23.921875 -18.660156 25.109375 -21.328125 C 26.296875 -23.992188 26.890625 -28.21875 26.890625 -34 L 26.890625 -119.125 C 26.890625 -127.414062 27.1875 -134.082031 27.78125 -139.125 L 11.109375 -138.453125 L 11.109375 -155.5625 L 74.890625 -155.5625 L 74.890625 -140.890625 C 70.890625 -140.742188 67.851562 -140.265625 65.78125 -139.453125 C 63.707031 -138.640625 62.078125 -136.898438 60.890625 -134.234375 C 59.703125 -131.566406 59.109375 -127.34375 59.109375 -121.5625 L 59.109375 -36.453125 C 59.109375 -28.453125 58.8125 -21.929688 58.21875 -16.890625 L 88 -16.890625 C 96.894531 -17.035156 103.785156 -20.179688 108.671875 -26.328125 C 113.554688 -32.484375 116 -41.488281 116 -53.34375 L 130.890625 -53.34375 L 129.5625 0 L 11.109375 0 Z M 11.109375 -14.671875 "/></g></g></g></svg>